<?xml version="1.0" encoding="utf-8"?>
<!-- Generator: Adobe Illustrator 18.1.1, SVG Export Plug-In . SVG Version: 6.00 Build 0)  -->
<!DOCTYPE svg PUBLIC "-//W3C//DTD SVG 1.1//EN" "http://www.w3.org/Graphics/SVG/1.1/DTD/svg11.dtd">
<svg version="1.1" id="Layer_1" xmlns="http://www.w3.org/2000/svg" xmlns:xlink="http://www.w3.org/1999/xlink" x="0px" y="0px"
	 viewBox="0 0 288 388.217" enable-background="new 0 0 288 388.217" xml:space="preserve">
<g>
	<path fill="#7D7D7C" d="M-2132.091,13.446l-1.801-4.801h-4.932l-1.801,4.745h-1.05l4.913-12.79h0.9l4.838,12.733L-2132.091,13.446z
		 M-2136.066,2.813c-0.113-0.3-0.188-0.581-0.244-0.937h-0.057c-0.056,0.356-0.131,0.638-0.243,0.937l-1.895,4.97h4.295
		L-2136.066,2.813z"/>
	<path fill="#7D7D7C" d="M-2122.019,13.578c-0.882,0-1.726-0.226-2.232-0.563v5.193h-0.881V5.12l0.881-0.056v0.899
		c0.638-0.694,1.501-1.05,2.682-1.05c2.27,0,3.77,1.537,3.77,4.069C-2117.8,11.984-2120.068,13.578-2122.019,13.578z
		 M-2121.831,5.738c-1.088,0-1.932,0.582-2.42,1.257v5.083c0.469,0.356,1.275,0.656,2.045,0.656c2.175,0,3.412-1.65,3.412-3.751
		S-2119.994,5.738-2121.831,5.738z"/>
	<path fill="#7D7D7C" d="M-2107.559,6.039c-0.226-0.094-0.487-0.131-0.77-0.131c-0.769,0-1.5,0.318-2.269,1.557v5.926h-0.882V5.12
		l0.882-0.056v1.35c0.825-1.256,1.688-1.5,2.531-1.5c0.244,0,0.469,0.018,0.694,0.094L-2107.559,6.039z"/>
	<path fill="#7D7D7C" d="M-2098.594,13.578c-1.932,0-3.9-1.351-3.9-4.238c0-3.133,2.007-4.426,3.807-4.426
		c1.97,0,2.944,1.275,2.944,2.813c0,0.207,0,0.582-0.037,1.182h-5.776c-0.019,0.15-0.019,0.318-0.019,0.394
		c0,1.8,1.031,3.376,3.132,3.376c1.031,0,1.726-0.488,2.231-1.031l0.544,0.619C-2096.343,13.109-2097.3,13.578-2098.594,13.578z
		 M-2096.681,7.559c0-0.938-0.694-1.801-2.063-1.801c-1.257,0-2.4,0.844-2.701,2.381h4.764V7.559z"/>
	<path fill="#7D7D7C" d="M-2083.571,13.391V8.083c0-1.782-0.976-2.345-2.044-2.345c-0.938,0-1.875,0.338-2.626,1.051v6.602h-0.881
		V5.12l0.881-0.056V5.87c0.863-0.694,1.819-0.956,2.663-0.956c1.744,0,2.889,0.844,2.889,3.169v5.308H-2083.571z"/>
	<path fill="#7D7D7C" d="M-2069.992,13.484l-0.094-1.031c-0.713,0.712-1.481,1.125-2.588,1.125c-2.513,0-3.77-1.764-3.77-4.164
		c0-2.513,1.65-4.481,4.22-4.481c0.75,0,1.425,0.149,2.119,0.431V0.094l0.881-0.094v11.928c0,0.432,0.075,1.05,0.15,1.463
		L-2069.992,13.484z M-2070.104,6.283c-0.582-0.357-1.332-0.488-1.988-0.488c-2.156,0-3.356,1.52-3.356,3.582
		c0,1.856,0.9,3.338,2.906,3.338c0.938,0,1.856-0.543,2.438-1.275V6.283z"/>
	<path fill="#7D7D7C" d="M-2059.002,13.578c-1.932,0-3.9-1.351-3.9-4.238c0-3.133,2.007-4.426,3.807-4.426
		c1.97,0,2.944,1.275,2.944,2.813c0,0.207,0,0.582-0.037,1.182h-5.776c-0.019,0.15-0.019,0.318-0.019,0.394
		c0,1.8,1.031,3.376,3.132,3.376c1.031,0,1.726-0.488,2.231-1.031l0.544,0.619C-2056.751,13.109-2057.708,13.578-2059.002,13.578z
		 M-2057.089,7.559c0-0.938-0.694-1.801-2.063-1.801c-1.257,0-2.4,0.844-2.701,2.381h4.764V7.559z"/>
	<path fill="#7D7D7C" d="M-2039.329,13.391V8.027c0-1.782-0.975-2.289-1.856-2.289c-0.9,0-1.725,0.357-2.344,1.126v6.526h-0.882
		V8.027c0-1.782-0.787-2.289-1.856-2.289c-0.787,0-1.744,0.413-2.382,1.051v6.602h-0.881V5.12l0.881-0.056V5.87
		c0.731-0.638,1.763-0.956,2.569-0.956c1.013,0,1.763,0.3,2.231,1.162c0.9-0.881,1.801-1.162,2.738-1.162
		c1.575,0,2.663,0.787,2.663,3.113v5.363H-2039.329z"/>
	<path fill="#7D7D7C" d="M-2028.188,13.578c-2.1,0-4.013-1.65-4.013-4.126c0-2.72,1.913-4.538,4.295-4.538
		c2.193,0,4.069,1.65,4.069,4.163C-2023.836,11.965-2025.975,13.578-2028.188,13.578z M-2027.999,5.776
		c-1.801,0-3.207,1.313-3.207,3.488c0,2.138,1.406,3.45,3.15,3.45c1.932,0,3.226-1.406,3.226-3.469
		C-2024.83,7.033-2026.312,5.776-2027.999,5.776z"/>
	<path fill="#7D7D7C" d="M-2015.921,13.578c-0.825,0-1.819-0.15-2.419-0.507l0.338-0.882c0.693,0.375,1.406,0.507,2.193,0.507
		c0.938,0,1.688-0.413,1.688-1.257c0-1.894-3.92-1.706-3.92-4.182c0-1.594,1.426-2.344,2.926-2.344c0.544,0,1.256,0.074,1.838,0.262
		l-0.244,0.938c-0.581-0.205-1.257-0.318-1.95-0.318c-0.9,0-1.669,0.432-1.669,1.351c0,1.838,3.919,1.706,3.919,4.144
		C-2013.221,12.584-2014.327,13.578-2015.921,13.578z"/>
	<path fill="#7D7D7C" d="M-1995.385,13.578c-1.932,0-3.9-1.351-3.9-4.238c0-3.133,2.007-4.426,3.807-4.426
		c1.97,0,2.944,1.275,2.944,2.813c0,0.207,0,0.582-0.037,1.182h-5.776c-0.019,0.15-0.019,0.318-0.019,0.394
		c0,1.8,1.031,3.376,3.132,3.376c1.031,0,1.726-0.488,2.231-1.031l0.544,0.619C-1993.134,13.109-1994.091,13.578-1995.385,13.578z
		 M-1993.472,7.559c0-0.938-0.694-1.801-2.063-1.801c-1.257,0-2.4,0.844-2.701,2.381h4.764V7.559z"/>
	<path fill="#7D7D7C" d="M-1980.362,13.391V8.083c0-1.782-0.975-2.345-2.044-2.345c-0.938,0-1.875,0.338-2.625,1.051v6.602h-0.882
		V5.12l0.882-0.056V5.87c0.862-0.694,1.819-0.956,2.663-0.956c1.744,0,2.888,0.844,2.888,3.169v5.308H-1980.362z"/>
	<path fill="#7D7D7C" d="M-1958.156,13.578c-3.375,0-6.601-2.269-6.601-6.357c0-4.801,3.413-6.846,6.563-6.846
		c1.444,0,3.319,0.244,4.201,0.676l-0.244,0.938c-0.788-0.356-2.513-0.676-3.938-0.676c-3.094,0-5.513,1.932-5.513,5.889
		c0,3.545,2.794,5.439,5.719,5.439c1.332,0,2.907-0.413,3.808-0.826l0.206,0.938C-1955.024,13.277-1956.655,13.578-1958.156,13.578z
		"/>
	<path fill="#7D7D7C" d="M-1943.996,13.578c-2.1,0-4.013-1.65-4.013-4.126c0-2.72,1.913-4.538,4.295-4.538
		c2.193,0,4.069,1.65,4.069,4.163C-1939.645,11.965-1941.783,13.578-1943.996,13.578z M-1943.808,5.776
		c-1.801,0-3.207,1.313-3.207,3.488c0,2.138,1.406,3.45,3.15,3.45c1.932,0,3.226-1.406,3.226-3.469
		C-1940.639,7.033-1942.12,5.776-1943.808,5.776z"/>
	<path fill="#7D7D7C" d="M-1923.122,13.391V8.027c0-1.782-0.975-2.289-1.856-2.289c-0.9,0-1.725,0.357-2.344,1.126v6.526h-0.882
		V8.027c0-1.782-0.787-2.289-1.856-2.289c-0.787,0-1.744,0.413-2.382,1.051v6.602h-0.881V5.12l0.881-0.056V5.87
		c0.731-0.638,1.763-0.956,2.569-0.956c1.013,0,1.763,0.3,2.231,1.162c0.9-0.881,1.801-1.162,2.738-1.162
		c1.575,0,2.663,0.787,2.663,3.113v5.363H-1923.122z"/>
	<path fill="#7D7D7C" d="M-1909.711,13.465l-0.094-0.9c-1.013,0.807-1.819,1.014-2.776,1.014c-1.612,0-2.682-0.844-2.682-3.001V5.12
		l0.882-0.056v5.325c0,1.782,0.882,2.362,1.95,2.362c0.938,0,1.913-0.412,2.588-1.087V5.12l0.882-0.056v6.638
		c0,0.525,0.074,1.2,0.169,1.688L-1909.711,13.465z"/>
	<path fill="#7D7D7C" d="M-1896.264,13.391V8.083c0-1.782-0.976-2.345-2.044-2.345c-0.938,0-1.875,0.338-2.626,1.051v6.602h-0.881
		V5.12l0.881-0.056V5.87c0.863-0.694,1.819-0.956,2.663-0.956c1.744,0,2.889,0.844,2.889,3.169v5.308H-1896.264z"/>
	<path fill="#7D7D7C" d="M-1887.936,2.775c-0.375,0-0.656-0.318-0.656-0.693s0.281-0.676,0.656-0.676s0.675,0.301,0.675,0.676
		S-1887.561,2.775-1887.936,2.775z M-1888.367,13.391V5.158l0.882-0.094v8.326H-1888.367z"/>
	<path fill="#7D7D7C" d="M-1874.714,13.484l-0.094-1.031c-0.713,0.712-1.481,1.125-2.588,1.125c-2.513,0-3.77-1.764-3.77-4.164
		c0-2.513,1.65-4.481,4.22-4.481c0.75,0,1.425,0.149,2.119,0.431V0.094l0.881-0.094v11.928c0,0.432,0.075,1.05,0.15,1.463
		L-1874.714,13.484z M-1874.826,6.283c-0.582-0.357-1.332-0.488-1.988-0.488c-2.156,0-3.356,1.52-3.356,3.582
		c0,1.856,0.9,3.338,2.906,3.338c0.938,0,1.856-0.543,2.438-1.275V6.283z"/>
	<path fill="#7D7D7C" d="M-1862.599,13.54l-0.168-0.899c-1.013,0.693-1.951,0.938-2.682,0.938c-1.294,0-2.176-0.826-2.176-2.119
		c0-0.844,0.45-1.613,1.069-2.025l3.731-0.319V7.596c0-1.238-0.6-1.801-1.726-1.801c-0.638,0-1.406,0.244-2.193,0.77l-0.301-0.807
		c1.088-0.693,1.95-0.844,2.813-0.844c1.294,0,2.288,0.675,2.288,2.568c0,0.319-0.057,3.713-0.057,3.939
		c0,0.3,0.019,0.544,0.057,0.769l0.243,1.182L-1862.599,13.54z M-1866.367,10.221c-0.207,0.263-0.301,0.787-0.301,1.106
		c0,0.769,0.395,1.388,1.351,1.388c0.788,0,1.575-0.262,2.438-0.844l0.02-1.969L-1866.367,10.221z"/>
	<path fill="#7D7D7C" d="M-1849.245,13.484l-0.094-1.031c-0.712,0.712-1.481,1.125-2.588,1.125c-2.513,0-3.769-1.764-3.769-4.164
		c0-2.513,1.649-4.481,4.219-4.481c0.75,0,1.426,0.149,2.119,0.431V0.094l0.882-0.094v11.928c0,0.432,0.075,1.05,0.149,1.463
		L-1849.245,13.484z M-1849.357,6.283c-0.581-0.357-1.331-0.488-1.987-0.488c-2.157,0-3.357,1.52-3.357,3.582
		c0,1.856,0.9,3.338,2.907,3.338c0.938,0,1.856-0.543,2.438-1.275V6.283z"/>
</g>
<g>
	<path fill="#FF6600" d="M-2078.407-11.104c-8.831,0-30.748-1.146-30.748-1.146h-8.014v-111.543h7.523c0,0,19.79-1.145,28.949-1.145
		c34.51,0,58.061,20.443,58.061,54.79C-2022.635-31.222-2046.022-11.104-2078.407-11.104z M-2081.023-114.145
		c-6.87,0-19.3,0.492-23.715,0.819v90.281c4.416,0.327,17.336,1.144,25.514,1.144c25.842,0,43.342-18.645,43.342-46.448
		C-2035.882-99.424-2056.817-114.145-2081.023-114.145z"/>
	<path fill="#FF6600" d="M-1965.396-11.268l-0.982-8.505c-8.83,7.522-15.864,9.158-23.715,9.158
		c-14.065,0-23.552-7.196-23.552-26.495v-46.777l11.776-1.144v46.286c0,13.737,6.706,17.5,15.373,17.5
		c7.197,0,14.395-3.599,19.627-8.996v-53.647l11.775-1.144v57.733c0,4.417,0.655,10.632,1.473,14.885L-1965.396-11.268z"/>
	<path fill="#FF6600" d="M-1934.326-104.33c-3.926,0-7.033-3.271-7.033-7.197c0-3.925,3.107-7.032,7.033-7.032
		s7.033,3.107,7.033,7.032C-1927.293-107.602-1930.4-104.33-1934.326-104.33z M-1940.215-12.25v-71.637l11.777-0.98v72.617
		H-1940.215z"/>
	<path fill="#FF6600" d="M-1898.182-10.614c-7.525,0-16.193-1.144-21.427-4.253l2.29-10.957c5.561,3.107,13.902,4.742,20.607,4.742
		c7.197,0,12.104-2.943,12.104-8.83c0-14.558-33.365-13.902-33.365-35.492c0-12.43,11.939-20.771,27.641-20.771
		c5.233,0,11.448,0.818,16.355,2.126l-1.963,10.958c-4.742-1.635-11.612-2.616-17.5-2.616c-8.015,0-12.758,3.271-12.758,9.159
		c0,13.411,33.365,13.574,33.365,35C-1872.832-20.1-1883.137-10.614-1898.182-10.614z"/>
</g>
<path opacity="0.3" fill="#FFFFFF" d="M-2010.416-359.314c0,0,39.411,0,58.098,16.988
	C-1952.318-342.326-1969.985-362.032-2010.416-359.314z"/>
<path opacity="0.3" fill="#FFFFFF" d="M-1995.127-351.272c0,0,19.13,0,28.199,8.247
	C-1966.928-343.025-1975.502-352.592-1995.127-351.272z"/>
<g>
	<path fill="#908E8D" d="M-1502.545-108.547c-0.02,2.337-13.932,4.109-31.07,3.959c-17.143-0.15-31.018-2.166-30.998-4.501
		c0.021-2.339,13.93-4.111,31.07-3.961C-1516.402-112.9-1502.523-110.885-1502.545-108.547z"/>
	<g>
		<path fill="#EAA97D" d="M-1532.467-342.101c-43.939-0.564-75.879,31.505-76.459,76.4c-0.334,26.107,11.226,43.135,21.229,57.914
			c7.813,11.565,16.518,21.748,14.217,33.303c-2.932,14.73,23.883,17.21,38.773,18.678c12.992,1.283,38.717-2.075,38.92-17.676
			c0.154-12.101,7.287-21.88,15.072-32.926c10.377-14.516,22.377-31.239,22.713-57.347
			C-1457.428-308.333-1488.527-341.533-1532.467-342.101z"/>
		<path fill="#FF6600" d="M-1504.585-156.344c-8.817,6.035-19.833,6.868-29.217,6.746c-13.594-0.175-22.302-2.553-29.354-7.823
			c-2.244-1.646-5.163-1.038-6.806,0.883c-1.649,2.242-1.038,5.166,0.882,6.811c5.132,3.624,10.279,5.956,15.764,7.323
			c0.85,9.72,9.16,17.593,19.195,17.725c10.03,0.13,18.545-7.529,19.639-17.225c5.52-1.223,10.727-3.424,15.628-6.919
			c2.284-1.59,2.646-4.498,1.056-6.784C-1499.385-157.893-1502.624-157.936-1504.585-156.344z M-1534.324-134.068
			c-4.208-0.054-7.411-2.686-8.984-6.266c2.908,0.361,6.146,0.401,9.06,0.439c2.911,0.038,5.822,0.077,9.063-0.204
			C-1526.525-136.557-1530.119-134.016-1534.324-134.068z"/>
		<path fill="#F4B184" d="M-1532.527-329.504c-40.463-0.521-69.877,29.01-70.41,70.351c-0.31,24.043,10.336,39.724,19.549,53.331
			c7.193,10.652,15.211,20.028,13.094,30.671c-2.701,13.562,21.988,15.845,35.703,17.199c11.965,1.176,35.654-1.91,35.84-16.279
			c0.141-11.143,6.709-20.147,13.879-30.321c9.558-13.365,20.609-28.765,20.918-52.811
			C-1463.424-298.408-1492.065-328.98-1532.527-329.504z"/>
		<g>
			<path fill="#FFFFFF" d="M-1565.78-271.012c-14.822,0.481-18.271,11.93-12.224,24.951c6.04,13.018,23.963,8.075,27.99-3.262
				C-1545.982-260.66-1554.385-271.384-1565.78-271.012z"/>
			<path fill="#020202" d="M-1557.616-255.205c-0.048,3.909-3.256,7.036-7.167,6.984c-3.904-0.051-7.027-3.257-6.979-7.165
				c0.053-3.906,3.257-7.033,7.164-6.982C-1560.69-262.316-1557.565-259.111-1557.616-255.205z"/>
			<path fill="#FFFFFF" d="M-1563.93-257.676c-0.021,1.666-1.387,2.997-3.057,2.976c-1.664-0.02-2.998-1.389-2.977-3.055
				c0.021-1.666,1.389-3,3.057-2.977C-1565.24-260.713-1563.906-259.344-1563.93-257.676z"/>
			<circle fill="#FFFFFF" cx="-1561.724" cy="-251.198" r="1.353"/>
		</g>
		<g>
			<path fill="#FFFFFF" d="M-1504.236-271.01c-14.828,0.481-18.275,11.93-12.227,24.95c6.043,13.019,23.967,8.075,27.994-3.262
				C-1484.44-260.659-1492.842-271.381-1504.236-271.01z"/>
			<circle fill="#020202" cx="-1503.146" cy="-255.294" r="7.074"/>
			<path fill="#FFFFFF" d="M-1502.385-257.675c-0.023,1.665-1.389,2.997-3.059,2.975c-1.664-0.02-2.996-1.389-2.977-3.054
				c0.021-1.668,1.389-3,3.057-2.979C-1503.697-260.712-1502.363-259.343-1502.385-257.675z"/>
			<circle fill="#FFFFFF" cx="-1500.181" cy="-251.196" r="1.353"/>
		</g>
		<path fill="#281D18" d="M-1500.07-284.74c0.504-1.789,11.4-3.276,13.342,4.114c1.24,4.72-4.889-0.935-7.518-0.953
			C-1496.873-281.593-1500.672-282.615-1500.07-284.74z"/>
		<path fill="#281D18" d="M-1570.203-278.539c-0.656-1.739,7.219-9.414,13.176-4.629c3.803,3.06-4.488,2.156-6.609,3.705
			C-1565.759-277.914-1569.422-276.472-1570.203-278.539z"/>
		<path fill="#020202" d="M-1510.885-204.164c-2.889,1.567-5.242-0.476-5.705,0.399c-0.457,0.874,2.811,2.681,6.074,0.853
			c3.225-1.805,3.883-4.032,2.932-4.451C-1508.539-207.775-1508.799-205.296-1510.885-204.164z"/>
		<path fill="#FF6600" d="M-1573.111-165.879c10.137,7.674,22.521,11.537,38.566,11.976c15.688,0.433,28.266-2.745,38.809-9.851
			c2.541-1.689,2.984-4.848,1.27-7.359c-1.713-2.513-4.725-1.768-7.271-0.076c-8.363,5.755-19.326,7.097-32.518,6.73
			c-13.551-0.37-23.813-3.471-32.203-9.688c-2.45-1.828-5.675-1.213-7.519,0.85
			C-1576.182-170.892-1575.559-167.707-1573.111-165.879z"/>
		<g>
			<path fill="#D28C4E" d="M-1500.404-275.955c-6.443-0.064-13.787,1.421-22.857,6.974c-2.656-2.454-20.265-2.454-22.921,0
				c-9.069-5.553-16.413-7.039-22.857-6.974c-12.296,0.097-21.265,6.522-32.294,5.909l0.436,8.752
				c5.896-1.474,5.005,1.756,5.404,4.79c5.682,41.902,54.127,33.813,54.426-1.244c-10.998-10.073,23.621-10.073,12.66,0
				c0.293,35.058,48.736,44.098,54.418,2.228c0.43-3.065,1.293-4.907,5.746-5.037l0.1-9.488
				C-1479.193-269.448-1488.123-275.858-1500.404-275.955z M-1597.416-262.879c-0.598,0-1.095-0.485-1.095-1.066
				c0-0.582,0.497-1.065,1.095-1.065c0.601,0,1.098,0.483,1.098,1.065C-1596.318-263.365-1596.815-262.879-1597.416-262.879z
				 M-1550.701-240.283c-4.055,5.585-10.832,9.2-17.809,9.2c-12.26,0-22.195-12.46-22.195-23.825
				c0-11.363,9.936-17.465,22.195-17.465s22.191,6.102,22.191,17.465C-1546.318-249.998-1547.612-244.512-1550.701-240.283z
				 M-1500.969-231.083c-6.977,0-13.754-3.615-17.805-9.2c-3.094-4.229-4.387-9.715-4.387-14.624
				c0-11.363,9.934-17.465,22.192-17.465s22.193,6.102,22.193,17.465C-1478.775-243.542-1488.711-231.083-1500.969-231.083z"/>
			<path fill="#D28C4E" d="M-1468.145-270.046v0.001c0.012-0.001,0.021-0.001,0.031-0.001H-1468.145z"/>
		</g>
		<g>
			<path fill="#FF6600" d="M-1498.928-277.43c-6.447-0.064-13.789,1.422-22.858,6.975c-2.656-2.456-20.266-2.456-22.924,0
				c-9.068-5.553-16.412-7.039-22.857-6.975c-12.294,0.098-21.264,6.523-32.293,5.91v10.846c4.451,0.13,5.447,0.645,5.848,3.681
				c5.683,41.901,54.119,32.829,54.418-2.229c-10.996-10.073,23.621-10.073,12.66,0c0.295,35.058,48.734,44.097,54.418,2.229
				c0.43-3.067,1.393-3.551,5.848-3.681v-10.846C-1477.721-270.921-1486.646-277.332-1498.928-277.43z M-1595.941-264.354
				c-0.598,0-1.094-0.484-1.094-1.066c0-0.581,0.496-1.065,1.094-1.065c0.602,0,1.098,0.484,1.098,1.065
				C-1594.844-264.838-1595.34-264.354-1595.941-264.354z M-1549.226-241.758c-4.057,5.586-10.833,9.202-17.809,9.202
				c-12.261,0-22.196-12.463-22.196-23.825c0-11.366,9.936-17.466,22.196-17.466c12.259,0,22.189,6.1,22.189,17.466
				C-1544.845-251.474-1546.137-245.985-1549.226-241.758z M-1499.494-232.556c-6.977,0-13.752-3.616-17.807-9.202
				c-3.092-4.228-4.385-9.716-4.385-14.623c0-11.366,9.932-17.466,22.191-17.466c12.256,0,22.195,6.1,22.195,17.466
				C-1477.299-245.019-1487.238-232.556-1499.494-232.556z"/>
			<path fill="#FF6600" d="M-1466.668-271.521L-1466.668-271.521c0.008,0,0.02,0,0.031,0H-1466.668z"/>
		</g>
		<path opacity="0.3" fill="#EFEDEC" d="M-1549.226-241.758c-4.057,5.586-10.833,9.202-17.809,9.202
			c-12.261,0-22.196-12.463-22.196-23.825c0-11.366,9.936-17.466,22.196-17.466c12.259,0,22.189,6.1,22.189,17.466
			C-1544.845-251.474-1546.137-245.985-1549.226-241.758z"/>
		<path opacity="0.3" fill="#EFEDEC" d="M-1481.918-241.758c-4.055,5.586-10.832,9.202-17.809,9.202
			c-12.26,0-22.195-12.463-22.195-23.825c0-11.366,9.936-17.466,22.195-17.466s22.191,6.1,22.191,17.466
			C-1477.535-251.474-1478.828-245.985-1481.918-241.758z"/>
		<path d="M-1474.754-272.224c0,0,2.113,11.104,2.275,13.503c0,0,4.807-2.404,6.865-1.774l-0.588-11.072L-1474.754-272.224z"/>
		<path d="M-1593.756-271.861c0,0-1.509,9.066-2.057,11.771c0,0-4.745-1.024-6.805-0.395l0.063-11.082L-1593.756-271.861z"/>
		<path d="M-1469.596-273.976"/>
		<path opacity="0.3" fill="#FFFFFF" d="M-1622.453-326.875c0,0,10.871,7.923,9.212,19.899
			C-1613.241-306.976-1609.924-320.978-1622.453-326.875z"/>
		<path fill="#EAA97D" d="M-1520.77-300.819c0,0,22.736-2.959,24.803-2.675c5.563,0.763,6.686,0.486,12.645,7.862
			c6.217,7.697,11.211,16.902,15.586,26.953c0,0-6.793-30.073-17.652-35.422C-1485.389-304.102-1506.908-311.842-1520.77-300.819z"
			/>
		<path fill="#281D18" d="M-1456.268-259.564l1.076,3.152c0-14.54,3.443-27.92,3.443-40.261c0-12.317-7.209-33.543-29.406-35.782
			c0,0-14.574-42.047-100.463-30.771c0,0,8.311,5.288,10.389,7.385c2.076,2.122,2.076,2.122,2.076,2.122s-21.129-1.061-33.596,8.099
			c0,0,8.664,2.474,10.391,7.39c0,0-24.416,1.59-33.943,11.278c0,0,12.121,1.4,12.121,33.454c0,9.735,0.311,26.471,4.809,37.925
			c-0.033,0.406,1.496,4.035,1.473,4.422l2.274,9.273c0-4.958,6.138-32.558,6.138-32.558c8.379-23.91,22.387-26.983,26.702-26.983
			c4.325,0,19.22,2.631,29.604,2.631c25.629,0,32.215-6.691,48.488-6.691c15.465,0,26.348,35.015,27.396,38.503
			c0.77,5.794,5.438,20.304,5.654,26.42C-1455.805-251.904-1456.268-259.564-1456.268-259.564z"/>
		<path opacity="0.3" fill="#FFFFFF" d="M-1515.797-305.325c0,0,22.848-5.405,28.99-1.474c0,0-0.699-4.449-14.279-1.934
			C-1510.205-307.045-1510.943-306.799-1515.797-305.325z"/>
		<path opacity="0.3" fill="#FFFFFF" d="M-1476.66-328.35c0,0,7.369-0.735,17.443,17.198
			C-1459.217-311.152-1464.377-327.367-1476.66-328.35z"/>
	</g>
</g>
<g>
	<path fill="#FF6600" d="M-1622.43-11.104c-8.831,0-30.748-1.146-30.748-1.146h-8.014v-111.543h7.523c0,0,19.79-1.145,28.949-1.145
		c34.51,0,58.061,20.443,58.061,54.79C-1566.658-31.222-1590.045-11.104-1622.43-11.104z M-1625.046-114.145
		c-6.87,0-19.3,0.492-23.716,0.819v90.281c4.416,0.327,17.336,1.144,25.514,1.144c25.843,0,43.343-18.645,43.343-46.448
		C-1579.905-99.424-1600.84-114.145-1625.046-114.145z"/>
	<path fill="#FF6600" d="M-1509.42-11.268l-0.982-8.505c-8.83,7.522-15.863,9.158-23.715,9.158
		c-14.064,0-23.551-7.196-23.551-26.495v-46.777l11.775-1.144v46.286c0,13.737,6.706,17.5,15.373,17.5
		c7.197,0,14.395-3.599,19.627-8.996v-53.647l11.775-1.144v57.733c0,4.417,0.656,10.632,1.473,14.885L-1509.42-11.268z"/>
	<path fill="#FF6600" d="M-1478.35-104.33c-3.926,0-7.033-3.271-7.033-7.197c0-3.925,3.107-7.032,7.033-7.032
		s7.033,3.107,7.033,7.032C-1471.316-107.602-1474.424-104.33-1478.35-104.33z M-1484.238-12.25v-71.637l11.777-0.98v72.617
		H-1484.238z"/>
	<path fill="#FF6600" d="M-1442.205-10.614c-7.525,0-16.193-1.144-21.426-4.253l2.289-10.957c5.561,3.107,13.902,4.742,20.607,4.742
		c7.197,0,12.104-2.943,12.104-8.83c0-14.558-33.365-13.902-33.365-35.492c0-12.43,11.939-20.771,27.641-20.771
		c5.234,0,11.449,0.818,16.355,2.126l-1.963,10.958c-4.742-1.635-11.611-2.616-17.5-2.616c-8.014,0-12.758,3.271-12.758,9.159
		c0,13.411,33.365,13.574,33.365,35C-1416.855-20.1-1427.16-10.614-1442.205-10.614z"/>
</g>
<path opacity="0.3" fill="#FFFFFF" d="M-1554.44-359.314c0,0,39.412,0,58.098,16.988
	C-1496.342-342.326-1514.008-362.032-1554.44-359.314z"/>
<path opacity="0.3" fill="#FFFFFF" d="M-1539.15-351.272c0,0,19.131,0,28.199,8.247
	C-1510.951-343.025-1519.525-352.592-1539.15-351.272z"/>
<g>
	<path fill="#908E8D" d="M-1958.522-108.547c-0.02,2.337-13.932,4.109-31.07,3.959c-17.143-0.15-31.018-2.166-30.998-4.501
		c0.021-2.339,13.93-4.111,31.07-3.961C-1972.38-112.9-1958.501-110.885-1958.522-108.547z"/>
	<g>
		<path fill="#EAA97D" d="M-1988.444-342.101c-43.939-0.564-75.879,31.505-76.459,76.4c-0.334,26.107,11.226,43.135,21.229,57.914
			c7.813,11.565,16.518,21.748,14.217,33.303c-2.932,14.73,23.883,17.21,38.773,18.678c12.992,1.283,38.717-2.075,38.92-17.676
			c0.154-12.101,7.287-21.88,15.072-32.926c10.377-14.516,22.377-31.239,22.713-57.347
			C-1913.405-308.333-1944.505-341.533-1988.444-342.101z"/>
		<path fill="#FF6600" d="M-1960.563-156.344c-8.817,6.035-19.833,6.868-29.217,6.746c-13.594-0.175-22.302-2.553-29.354-7.823
			c-2.244-1.646-5.163-1.038-6.806,0.883c-1.649,2.242-1.038,5.166,0.882,6.811c5.132,3.624,10.279,5.956,15.764,7.323
			c0.85,9.72,9.16,17.593,19.195,17.725c10.03,0.13,18.545-7.529,19.639-17.225c5.52-1.223,10.727-3.424,15.628-6.919
			c2.284-1.59,2.646-4.498,1.056-6.784C-1955.362-157.893-1958.602-157.936-1960.563-156.344z M-1990.302-134.068
			c-4.208-0.054-7.411-2.686-8.984-6.266c2.908,0.361,6.146,0.401,9.06,0.439c2.911,0.038,5.822,0.077,9.063-0.204
			C-1982.503-136.557-1986.097-134.016-1990.302-134.068z"/>
		<path fill="#F4B184" d="M-1988.505-329.504c-40.463-0.521-69.877,29.01-70.41,70.351c-0.31,24.043,10.336,39.724,19.549,53.331
			c7.193,10.652,15.211,20.028,13.094,30.671c-2.701,13.562,21.988,15.845,35.703,17.199c11.965,1.176,35.654-1.91,35.84-16.279
			c0.141-11.143,6.709-20.147,13.879-30.321c9.559-13.365,20.609-28.765,20.918-52.811
			C-1919.401-298.408-1948.042-328.98-1988.505-329.504z"/>
		<g>
			<path fill="#FFFFFF" d="M-2021.758-271.012c-14.822,0.481-18.271,11.93-12.224,24.951c6.04,13.018,23.963,8.075,27.99-3.262
				C-2001.96-260.66-2010.362-271.384-2021.758-271.012z"/>
			<path fill="#020202" d="M-2013.594-255.205c-0.048,3.909-3.256,7.036-7.167,6.984c-3.904-0.051-7.027-3.257-6.979-7.165
				c0.053-3.906,3.257-7.033,7.164-6.982C-2016.667-262.316-2013.542-259.111-2013.594-255.205z"/>
			<path fill="#FFFFFF" d="M-2019.907-257.676c-0.021,1.666-1.387,2.997-3.057,2.976c-1.664-0.02-2.998-1.389-2.977-3.055
				c0.021-1.666,1.389-3,3.057-2.977C-2021.218-260.713-2019.884-259.344-2019.907-257.676z"/>
			<circle fill="#FFFFFF" cx="-2017.701" cy="-251.198" r="1.353"/>
		</g>
		<g>
			<path fill="#FFFFFF" d="M-1960.214-271.01c-14.828,0.481-18.275,11.93-12.227,24.95c6.043,13.019,23.967,8.075,27.994-3.262
				C-1940.417-260.659-1948.819-271.381-1960.214-271.01z"/>
			<circle fill="#020202" cx="-1959.123" cy="-255.294" r="7.074"/>
			<path fill="#FFFFFF" d="M-1958.362-257.675c-0.023,1.665-1.389,2.997-3.059,2.975c-1.664-0.02-2.996-1.389-2.977-3.054
				c0.021-1.668,1.389-3,3.057-2.979C-1959.675-260.712-1958.341-259.343-1958.362-257.675z"/>
			<circle fill="#FFFFFF" cx="-1956.158" cy="-251.196" r="1.353"/>
		</g>
		<path fill="#281D18" d="M-1956.048-284.74c0.504-1.789,11.4-3.276,13.342,4.114c1.24,4.72-4.889-0.935-7.518-0.953
			C-1952.851-281.593-1956.649-282.615-1956.048-284.74z"/>
		<path fill="#281D18" d="M-2026.181-278.539c-0.656-1.739,7.219-9.414,13.176-4.629c3.803,3.06-4.488,2.156-6.609,3.705
			C-2021.736-277.914-2025.399-276.472-2026.181-278.539z"/>
		<path fill="#020202" d="M-1966.862-204.164c-2.889,1.567-5.242-0.476-5.705,0.399c-0.457,0.874,2.811,2.681,6.074,0.853
			c3.225-1.805,3.883-4.032,2.932-4.451C-1964.517-207.775-1964.776-205.296-1966.862-204.164z"/>
		<path fill="#FF6600" d="M-2029.089-165.879c10.137,7.674,22.521,11.537,38.566,11.976c15.688,0.433,28.266-2.745,38.809-9.851
			c2.541-1.689,2.984-4.848,1.27-7.359c-1.713-2.513-4.725-1.768-7.271-0.076c-8.363,5.755-19.326,7.097-32.518,6.73
			c-13.551-0.37-23.813-3.471-32.203-9.688c-2.45-1.828-5.675-1.213-7.519,0.85
			C-2032.159-170.892-2031.536-167.707-2029.089-165.879z"/>
		<g>
			<path fill="#D28C4E" d="M-1956.382-275.955c-6.443-0.064-13.787,1.421-22.857,6.974c-2.656-2.454-20.265-2.454-22.921,0
				c-9.069-5.553-16.413-7.039-22.857-6.974c-12.296,0.097-21.265,6.522-32.294,5.909l0.436,8.752
				c5.896-1.474,5.005,1.756,5.404,4.79c5.682,41.902,54.127,33.813,54.426-1.244c-10.998-10.073,23.621-10.073,12.66,0
				c0.293,35.058,48.736,44.098,54.418,2.228c0.43-3.065,1.293-4.907,5.746-5.037l0.1-9.488
				C-1935.171-269.448-1944.101-275.858-1956.382-275.955z M-2053.394-262.879c-0.598,0-1.095-0.485-1.095-1.066
				c0-0.582,0.497-1.065,1.095-1.065c0.602,0,1.098,0.483,1.098,1.065C-2052.296-263.365-2052.792-262.879-2053.394-262.879z
				 M-2006.679-240.283c-4.055,5.585-10.832,9.2-17.809,9.2c-12.26,0-22.195-12.46-22.195-23.825
				c0-11.363,9.936-17.465,22.195-17.465s22.191,6.102,22.191,17.465C-2002.296-249.998-2003.59-244.512-2006.679-240.283z
				 M-1956.946-231.083c-6.977,0-13.754-3.615-17.805-9.2c-3.094-4.229-4.387-9.715-4.387-14.624
				c0-11.363,9.934-17.465,22.191-17.465s22.193,6.102,22.193,17.465C-1934.753-243.542-1944.688-231.083-1956.946-231.083z"/>
			<path fill="#D28C4E" d="M-1924.122-270.046v0.001c0.012-0.001,0.021-0.001,0.031-0.001H-1924.122z"/>
		</g>
		<g>
			<path fill="#FF6600" d="M-1954.905-277.43c-6.447-0.064-13.789,1.422-22.857,6.975c-2.656-2.456-20.267-2.456-22.924,0
				c-9.068-5.553-16.412-7.039-22.857-6.975c-12.294,0.098-21.264,6.523-32.293,5.91v10.846c4.451,0.13,5.447,0.645,5.848,3.681
				c5.683,41.901,54.119,32.829,54.418-2.229c-10.996-10.073,23.621-10.073,12.66,0c0.295,35.058,48.734,44.097,54.418,2.229
				c0.43-3.067,1.393-3.551,5.848-3.681v-10.846C-1933.698-270.921-1942.624-277.332-1954.905-277.43z M-2051.919-264.354
				c-0.598,0-1.094-0.484-1.094-1.066c0-0.581,0.496-1.065,1.094-1.065c0.602,0,1.098,0.484,1.098,1.065
				C-2050.821-264.838-2051.317-264.354-2051.919-264.354z M-2005.203-241.758c-4.057,5.586-10.833,9.202-17.809,9.202
				c-12.261,0-22.196-12.463-22.196-23.825c0-11.366,9.936-17.466,22.196-17.466c12.259,0,22.189,6.1,22.189,17.466
				C-2000.822-251.474-2002.114-245.985-2005.203-241.758z M-1955.472-232.556c-6.977,0-13.752-3.616-17.807-9.202
				c-3.092-4.228-4.385-9.716-4.385-14.623c0-11.366,9.932-17.466,22.191-17.466c12.256,0,22.195,6.1,22.195,17.466
				C-1933.276-245.019-1943.216-232.556-1955.472-232.556z"/>
			<path fill="#FF6600" d="M-1922.646-271.521L-1922.646-271.521c0.008,0,0.02,0,0.031,0H-1922.646z"/>
		</g>
		<path opacity="0.3" fill="#EFEDEC" d="M-2005.203-241.758c-4.057,5.586-10.833,9.202-17.809,9.202
			c-12.261,0-22.196-12.463-22.196-23.825c0-11.366,9.936-17.466,22.196-17.466c12.259,0,22.189,6.1,22.189,17.466
			C-2000.822-251.474-2002.114-245.985-2005.203-241.758z"/>
		<path opacity="0.3" fill="#EFEDEC" d="M-1937.896-241.758c-4.055,5.586-10.832,9.202-17.809,9.202
			c-12.26,0-22.195-12.463-22.195-23.825c0-11.366,9.936-17.466,22.195-17.466s22.191,6.1,22.191,17.466
			C-1933.513-251.474-1934.806-245.985-1937.896-241.758z"/>
		<path d="M-1930.731-272.224c0,0,2.113,11.104,2.275,13.503c0,0,4.807-2.404,6.865-1.774l-0.588-11.072L-1930.731-272.224z"/>
		<path d="M-2049.733-271.861c0,0-1.509,9.066-2.057,11.771c0,0-4.745-1.024-6.805-0.395l0.063-11.082L-2049.733-271.861z"/>
		<path d="M-1925.573-273.976"/>
		<path opacity="0.3" fill="#FFFFFF" d="M-2078.431-326.875c0,0,10.871,7.923,9.212,19.899
			C-2069.219-306.976-2065.901-320.978-2078.431-326.875z"/>
		<path fill="#EAA97D" d="M-1976.747-300.819c0,0,22.736-2.959,24.803-2.675c5.563,0.763,6.686,0.486,12.645,7.862
			c6.217,7.697,11.211,16.902,15.586,26.953c0,0-6.793-30.073-17.652-35.422C-1941.366-304.102-1962.886-311.842-1976.747-300.819z"
			/>
		<path fill="#281D18" d="M-1912.245-259.564l1.076,3.152c0-14.54,3.443-27.92,3.443-40.261c0-12.317-7.209-33.543-29.406-35.782
			c0,0-14.574-42.047-100.463-30.771c0,0,8.311,5.288,10.389,7.385c2.076,2.122,2.076,2.122,2.076,2.122s-21.129-1.061-33.596,8.099
			c0,0,8.664,2.474,10.391,7.39c0,0-24.416,1.59-33.943,11.278c0,0,12.121,1.4,12.121,33.454c0,9.735,0.311,26.471,4.809,37.925
			c-0.033,0.406,1.496,4.035,1.473,4.422l2.274,9.273c0-4.958,6.138-32.558,6.138-32.558c8.379-23.91,22.387-26.983,26.702-26.983
			c4.325,0,19.22,2.631,29.604,2.631c25.629,0,32.215-6.691,48.488-6.691c15.465,0,26.348,35.015,27.396,38.503
			c0.77,5.794,5.438,20.304,5.654,26.42C-1911.782-251.904-1912.245-259.564-1912.245-259.564z"/>
		<path opacity="0.3" fill="#FFFFFF" d="M-1971.774-305.325c0,0,22.848-5.405,28.99-1.474c0,0-0.699-4.449-14.279-1.934
			C-1966.183-307.045-1966.921-306.799-1971.774-305.325z"/>
		<path opacity="0.3" fill="#FFFFFF" d="M-1932.638-328.35c0,0,7.369-0.735,17.443,17.198
			C-1915.194-311.152-1920.354-327.367-1932.638-328.35z"/>
	</g>
</g>
<path opacity="0.3" fill="#FFFFFF" d="M-2010.417-369.32c0,0,39.412,0,58.098,16.988
	C-1952.319-352.332-1969.985-372.038-2010.417-369.32z"/>
<path opacity="0.3" fill="#FFFFFF" d="M-1995.128-361.278c0,0,19.131,0,28.199,8.247
	C-1966.929-353.031-1975.503-362.598-1995.128-361.278z"/>
<g>
	<g>
		<path fill="#EAA97D" d="M-882.582-228.857c-2.802-0.036-4.838,2.009-4.875,4.871c-0.021,1.665,0.716,2.75,1.354,3.693
			c0.498,0.737,1.053,1.387,0.906,2.123c-0.187,0.939,1.523,1.097,2.472,1.191c0.828,0.082,2.469-0.132,2.482-1.127
			c0.01-0.772,0.465-1.395,0.961-2.099c0.662-0.926,1.427-1.992,1.448-3.657C-877.797-226.704-879.78-228.821-882.582-228.857z"/>
		<path fill="#FF6600" d="M-880.804-217.013c-0.562,0.385-1.265,0.438-1.863,0.43c-0.867-0.011-1.422-0.163-1.872-0.499
			c-0.143-0.105-0.329-0.066-0.434,0.056c-0.105,0.143-0.066,0.329,0.056,0.434c0.327,0.231,0.655,0.38,1.005,0.467
			c0.054,0.62,0.584,1.122,1.224,1.13c0.64,0.008,1.182-0.48,1.252-1.098c0.352-0.078,0.684-0.218,0.996-0.441
			c0.146-0.101,0.169-0.287,0.067-0.433C-880.472-217.112-880.679-217.115-880.804-217.013z M-882.7-215.593
			c-0.268-0.003-0.473-0.171-0.573-0.4c0.185,0.023,0.392,0.026,0.578,0.028c0.186,0.002,0.371,0.005,0.578-0.013
			C-882.203-215.752-882.432-215.59-882.7-215.593z"/>
		<path fill="#F4B184" d="M-882.586-228.054c-2.58-0.033-4.456,1.85-4.49,4.486c-0.02,1.533,0.659,2.533,1.246,3.401
			c0.459,0.679,0.97,1.277,0.835,1.956c-0.172,0.865,1.402,1.01,2.277,1.097c0.763,0.075,2.273-0.122,2.285-1.038
			c0.009-0.71,0.428-1.285,0.885-1.933c0.609-0.852,1.314-1.834,1.334-3.367C-878.18-226.072-880.006-228.021-882.586-228.054z"/>
		<g>
			<path fill="#FFFFFF" d="M-884.706-224.325c-0.945,0.031-1.165,0.761-0.779,1.591c0.385,0.83,1.528,0.515,1.785-0.208
				C-883.444-223.665-883.979-224.348-884.706-224.325z"/>
			<circle fill="#020202" cx="-884.636" cy="-223.323" r="0.451"/>
			<circle fill="#FFFFFF" cx="-884.78" cy="-223.477" r="0.192"/>
			<circle fill="#FFFFFF" cx="-884.447" cy="-223.061" r="0.086"/>
		</g>
		<g>
			<path fill="#FFFFFF" d="M-880.782-224.325c-0.945,0.031-1.165,0.761-0.78,1.591c0.385,0.83,1.528,0.515,1.785-0.208
				C-879.52-223.665-880.055-224.348-880.782-224.325z"/>
			<circle fill="#020202" cx="-880.712" cy="-223.323" r="0.451"/>
			<circle fill="#FFFFFF" cx="-880.856" cy="-223.477" r="0.192"/>
			<circle fill="#FFFFFF" cx="-880.523" cy="-223.061" r="0.086"/>
		</g>
		<path fill="#281D18" d="M-880.516-225.2c0.032-0.114,0.727-0.209,0.851,0.262c0.079,0.301-0.312-0.06-0.479-0.061
			C-880.312-224.999-880.555-225.065-880.516-225.2z"/>
		<path fill="#281D18" d="M-884.988-224.805c-0.042-0.111,0.46-0.6,0.84-0.295c0.242,0.195-0.286,0.137-0.421,0.236
			C-884.705-224.765-884.938-224.673-884.988-224.805z"/>
		<path fill="#020202" d="M-881.206-220.062c-0.184,0.1-0.334-0.03-0.364,0.025c-0.029,0.056,0.179,0.171,0.387,0.054
			c0.206-0.115,0.248-0.257,0.187-0.284C-881.056-220.293-881.073-220.135-881.206-220.062z"/>
		<path fill="#FF6600" d="M-885.173-217.621c0.646,0.489,1.436,0.736,2.459,0.764c1,0.028,1.802-0.175,2.474-0.628
			c0.162-0.108,0.19-0.309,0.081-0.469c-0.109-0.16-0.301-0.113-0.464-0.005c-0.533,0.367-1.232,0.452-2.073,0.429
			c-0.864-0.024-1.518-0.221-2.053-0.618c-0.156-0.117-0.362-0.077-0.479,0.054C-885.369-217.941-885.33-217.738-885.173-217.621z"
			/>
		<g>
			<path fill="#D28C4E" d="M-880.537-224.64c-0.411-0.004-0.879,0.091-1.457,0.445c-0.169-0.157-1.292-0.157-1.461,0
				c-0.578-0.354-1.047-0.449-1.457-0.445c-0.784,0.006-1.356,0.416-2.059,0.377l0.028,0.558c0.376-0.094,0.319,0.112,0.345,0.305
				c0.362,2.672,3.451,2.156,3.47-0.079c-0.701-0.642,1.506-0.642,0.807,0c0.019,2.235,3.107,2.812,3.47,0.142
				c0.027-0.195,0.082-0.313,0.366-0.321l0.006-0.605C-879.185-224.225-879.754-224.634-880.537-224.64z M-886.723-223.806
				c-0.038,0-0.07-0.031-0.07-0.068c0-0.037,0.032-0.068,0.07-0.068c0.038,0,0.07,0.031,0.07,0.068
				C-886.653-223.837-886.685-223.806-886.723-223.806z M-883.745-222.365c-0.258,0.356-0.691,0.587-1.135,0.587
				c-0.782,0-1.415-0.794-1.415-1.519c0-0.725,0.634-1.114,1.415-1.114c0.782,0,1.415,0.389,1.415,1.114
				C-883.465-222.985-883.548-222.635-883.745-222.365z M-880.573-221.779c-0.445,0-0.877-0.231-1.135-0.587
				c-0.197-0.27-0.28-0.619-0.28-0.932c0-0.725,0.633-1.114,1.415-1.114s1.415,0.389,1.415,1.114
				C-879.158-222.573-879.792-221.779-880.573-221.779z"/>
			<polygon fill="#D28C4E" points="-878.481,-224.263 -878.481,-224.263 -878.479,-224.263 			"/>
		</g>
		<g>
			<path fill="#FF6600" d="M-880.443-224.734c-0.411-0.004-0.879,0.091-1.457,0.445c-0.169-0.157-1.292-0.157-1.462,0
				c-0.578-0.354-1.046-0.449-1.457-0.445c-0.784,0.006-1.356,0.416-2.059,0.377v0.692c0.284,0.008,0.347,0.041,0.373,0.235
				c0.362,2.672,3.451,2.093,3.47-0.142c-0.701-0.642,1.506-0.642,0.807,0c0.019,2.235,3.107,2.812,3.47,0.142
				c0.027-0.196,0.089-0.226,0.373-0.235v-0.692C-879.091-224.319-879.66-224.728-880.443-224.734z M-886.629-223.9
				c-0.038,0-0.07-0.031-0.07-0.068c0-0.037,0.032-0.068,0.07-0.068c0.038,0,0.07,0.031,0.07,0.068
				C-886.559-223.931-886.591-223.9-886.629-223.9z M-883.65-222.459c-0.259,0.356-0.691,0.587-1.135,0.587
				c-0.782,0-1.415-0.795-1.415-1.519c0-0.725,0.633-1.114,1.415-1.114c0.782,0,1.415,0.389,1.415,1.114
				C-883.371-223.079-883.453-222.729-883.65-222.459z M-880.479-221.873c-0.445,0-0.877-0.231-1.135-0.587
				c-0.197-0.27-0.28-0.62-0.28-0.932c0-0.725,0.633-1.114,1.415-1.114c0.781,0,1.415,0.389,1.415,1.114
				C-879.064-222.667-879.698-221.873-880.479-221.873z"/>
			<polygon fill="#FF6600" points="-878.386,-224.357 -878.386,-224.357 -878.384,-224.357 			"/>
		</g>
		<path opacity="0.3" fill="#EFEDEC" d="M-883.65-222.459c-0.259,0.356-0.691,0.587-1.135,0.587c-0.782,0-1.415-0.795-1.415-1.519
			c0-0.725,0.633-1.114,1.415-1.114c0.782,0,1.415,0.389,1.415,1.114C-883.371-223.079-883.453-222.729-883.65-222.459z"/>
		<path opacity="0.3" fill="#EFEDEC" d="M-879.359-222.459c-0.259,0.356-0.691,0.587-1.135,0.587c-0.782,0-1.415-0.795-1.415-1.519
			c0-0.725,0.633-1.114,1.415-1.114c0.782,0,1.415,0.389,1.415,1.114C-879.079-223.079-879.162-222.729-879.359-222.459z"/>
		<path d="M-878.902-224.402c0,0,0.135,0.708,0.145,0.861c0,0,0.307-0.153,0.438-0.113l-0.037-0.706L-878.902-224.402z"/>
		<path d="M-886.49-224.379c0,0-0.096,0.578-0.131,0.751c0,0-0.303-0.065-0.434-0.025l0.004-0.707L-886.49-224.379z"/>
		<path d="M-878.573-224.514"/>
		<path opacity="0.3" fill="#FFFFFF" d="M-888.32-227.887c0,0,0.693,0.505,0.587,1.269
			C-887.732-226.618-887.521-227.511-888.32-227.887z"/>
		<path fill="#EAA97D" d="M-881.836-226.225c0,0,1.45-0.189,1.581-0.171c0.355,0.049,0.426,0.031,0.806,0.501
			c0.396,0.491,0.715,1.078,0.994,1.719c0,0-0.433-1.918-1.126-2.259C-879.58-226.435-880.952-226.928-881.836-226.225z"/>
		<path fill="#281D18" d="M-877.723-223.595l0.069,0.201c0-0.927,0.22-1.78,0.22-2.567c0-0.785-0.46-2.139-1.875-2.282
			c0,0-0.929-2.681-6.406-1.962c0,0,0.53,0.337,0.662,0.471c0.132,0.135,0.132,0.135,0.132,0.135s-1.347-0.068-2.142,0.516
			c0,0,0.552,0.158,0.663,0.471c0,0-1.557,0.101-2.164,0.719c0,0,0.773,0.089,0.773,2.133c0,0.621,0.02,1.688,0.307,2.418
			c-0.002,0.026,0.095,0.257,0.094,0.282l0.145,0.591c0-0.316,0.391-2.076,0.391-2.076c0.534-1.525,1.427-1.72,1.703-1.72
			c0.276,0,1.225,0.168,1.888,0.168c1.634,0,2.054-0.427,3.092-0.427c0.986,0,1.68,2.233,1.747,2.455
			c0.049,0.369,0.347,1.295,0.361,1.685C-877.694-223.106-877.723-223.595-877.723-223.595z"/>
		<path opacity="0.3" fill="#FFFFFF" d="M-881.519-226.513c0,0,1.457-0.345,1.849-0.094c0,0-0.045-0.284-0.91-0.123
			C-881.162-226.622-881.209-226.607-881.519-226.513z"/>
		<path opacity="0.3" fill="#FFFFFF" d="M-879.023-227.981c0,0,0.47-0.047,1.112,1.097
			C-877.911-226.884-878.24-227.918-879.023-227.981z"/>
	</g>
</g>
<path fill="#FF6600" d="M-619-114.885h-147c-6.6,0-12-5.4-12-12v-147c0-6.6,5.4-12,12-12h147c6.6,0,12,5.4,12,12v147
	C-607-120.285-612.4-114.885-619-114.885z"/>
<g>
	<g>
		<path fill="#EAA97D" d="M-958.899-320.012c-29.305-0.376-50.607,21.012-50.994,50.954c-0.223,17.412,7.487,28.768,14.158,38.625
			c5.211,7.713,11.016,14.505,9.482,22.211c-1.955,9.824,15.928,11.478,25.86,12.457c8.665,0.856,25.822-1.384,25.957-11.789
			c0.103-8.07,4.86-14.593,10.052-21.96c6.921-9.681,14.924-20.834,15.148-38.247C-908.852-297.491-929.594-319.633-958.899-320.012
			z"/>
		<path fill="#FF6600" d="M-940.303-196.123c-5.881,4.025-13.227,4.581-19.486,4.499c-9.066-0.117-14.874-1.703-19.578-5.218
			c-1.497-1.098-3.443-0.692-4.539,0.589c-1.1,1.495-0.692,3.445,0.588,4.542c3.423,2.417,6.856,3.972,10.513,4.884
			c0.567,6.482,6.109,11.733,12.802,11.821c6.69,0.087,12.368-5.022,13.098-11.488c3.681-0.815,7.154-2.283,10.423-4.615
			c1.523-1.06,1.764-3,0.704-4.525C-936.835-197.156-938.995-197.184-940.303-196.123z M-960.137-181.266
			c-2.807-0.036-4.943-1.792-5.992-4.179c1.94,0.241,4.099,0.268,6.042,0.292c1.942,0.025,3.883,0.051,6.045-0.136
			C-954.936-182.926-957.333-181.231-960.137-181.266z"/>
		<path fill="#F4B184" d="M-958.939-311.61c-26.986-0.348-46.604,19.348-46.959,46.92c-0.206,16.036,6.893,26.494,13.038,35.569
			c4.798,7.104,10.145,13.358,8.733,20.456c-1.802,9.045,14.665,10.567,23.812,11.471c7.98,0.784,23.779-1.274,23.903-10.857
			c0.094-7.431,4.474-13.437,9.256-20.222c6.375-8.913,13.745-19.184,13.951-35.222
			C-912.851-290.871-931.953-311.261-958.939-311.61z"/>
		<g>
			<path fill="#FFFFFF" d="M-981.117-272.6c-9.886,0.321-12.186,7.956-8.152,16.641c4.028,8.683,15.982,5.385,18.668-2.175
				C-967.913-265.695-973.517-272.848-981.117-272.6z"/>
			<circle fill="#020202" cx="-980.389" cy="-262.118" r="4.718"/>
			<circle fill="#FFFFFF" cx="-981.895" cy="-263.732" r="2.012"/>
			<circle fill="#FFFFFF" cx="-978.411" cy="-259.385" r="0.902"/>
		</g>
		<g>
			<path fill="#FFFFFF" d="M-940.071-272.599c-9.89,0.321-12.189,7.956-8.154,16.64c4.03,8.683,15.984,5.385,18.671-2.175
				C-926.867-265.695-932.471-272.846-940.071-272.599z"/>
			<circle fill="#020202" cx="-939.343" cy="-262.117" r="4.718"/>
			<circle fill="#FFFFFF" cx="-940.848" cy="-263.731" r="2.013"/>
			<circle fill="#FFFFFF" cx="-937.366" cy="-259.384" r="0.902"/>
		</g>
		<path fill="#281D18" d="M-937.292-281.755c0.336-1.193,7.603-2.185,8.898,2.744c0.827,3.148-3.26-0.624-5.014-0.635
			C-935.16-279.657-937.693-280.338-937.292-281.755z"/>
		<path fill="#281D18" d="M-984.067-277.62c-0.438-1.16,4.814-6.279,8.787-3.087c2.536,2.041-2.993,1.438-4.408,2.471
			C-981.102-277.203-983.546-276.241-984.067-277.62z"/>
		<path fill="#020202" d="M-944.505-228.016c-1.927,1.045-3.496-0.317-3.805,0.266c-0.305,0.583,1.874,1.788,4.051,0.569
			c2.151-1.204,2.59-2.689,1.955-2.968C-942.94-230.425-943.114-228.771-944.505-228.016z"/>
		<path fill="#FF6600" d="M-986.006-202.482c6.761,5.118,15.021,7.695,25.721,7.987c10.463,0.289,18.852-1.831,25.883-6.57
			c1.695-1.127,1.99-3.233,0.847-4.908c-1.142-1.676-3.151-1.179-4.85-0.051c-5.578,3.838-12.889,4.733-21.687,4.489
			c-9.038-0.247-15.882-2.315-21.478-6.461c-1.634-1.219-3.785-0.809-5.014,0.567C-988.054-205.825-987.638-203.701-986.006-202.482
			z"/>
		<g>
			<path fill="#D28C4E" d="M-937.515-275.897c-4.297-0.043-9.195,0.948-15.245,4.651c-1.772-1.637-13.515-1.637-15.287,0
				c-6.049-3.704-10.947-4.694-15.245-4.651c-8.201,0.065-14.182,4.35-21.538,3.941l0.29,5.837c3.932-0.983,3.338,1.171,3.604,3.195
				c3.789,27.946,36.099,22.552,36.299-0.83c-7.335-6.718,15.754-6.718,8.444,0c0.195,23.381,32.504,29.411,36.294,1.486
				c0.287-2.044,0.862-3.273,3.832-3.359l0.066-6.328C-923.368-271.557-929.324-275.832-937.515-275.897z M-1002.216-267.176
				c-0.399,0-0.73-0.324-0.73-0.711c0-0.388,0.331-0.711,0.73-0.711c0.401,0,0.732,0.322,0.732,0.711
				C-1001.484-267.499-1001.815-267.176-1002.216-267.176z M-971.06-252.105c-2.704,3.725-7.224,6.136-11.877,6.136
				c-8.177,0-14.803-8.31-14.803-15.89c0-7.579,6.626-11.648,14.803-11.648c8.177,0,14.8,4.07,14.8,11.648
				C-968.137-258.585-969-254.926-971.06-252.105z M-937.891-245.969c-4.653,0-9.173-2.411-11.875-6.136
				c-2.063-2.82-2.926-6.48-2.926-9.754c0-7.579,6.625-11.648,14.8-11.648c8.175,0,14.802,4.07,14.802,11.648
				C-923.09-254.279-929.716-245.969-937.891-245.969z"/>
			<path fill="#D28C4E" d="M-915.999-271.955L-915.999-271.955c0.008,0,0.014,0,0.021,0H-915.999z"/>
		</g>
		<g>
			<path fill="#FF6600" d="M-936.53-276.88c-4.3-0.043-9.196,0.948-15.245,4.652c-1.772-1.638-13.517-1.638-15.289,0
				c-6.048-3.704-10.946-4.695-15.245-4.652c-8.199,0.065-14.182,4.351-21.538,3.941v7.234c2.969,0.087,3.633,0.43,3.9,2.455
				c3.79,27.945,36.094,21.895,36.294-1.486c-7.334-6.718,15.754-6.718,8.444,0c0.197,23.381,32.503,29.41,36.294,1.486
				c0.287-2.046,0.929-2.368,3.9-2.455v-7.234C-922.386-272.539-928.339-276.815-936.53-276.88z M-1001.233-268.16
				c-0.399,0-0.729-0.323-0.729-0.711c0-0.387,0.331-0.71,0.729-0.71c0.401,0,0.732,0.323,0.732,0.71
				C-1000.5-268.482-1000.831-268.16-1001.233-268.16z M-970.076-253.089c-2.706,3.726-7.225,6.137-11.877,6.137
				c-8.177,0-14.804-8.312-14.804-15.89c0-7.58,6.626-11.649,14.804-11.649c8.176,0,14.799,4.068,14.799,11.649
				C-967.154-259.569-968.016-255.908-970.076-253.089z M-936.908-246.952c-4.653,0-9.172-2.411-11.876-6.137
				c-2.062-2.819-2.924-6.48-2.924-9.752c0-7.58,6.624-11.649,14.8-11.649c8.174,0,14.803,4.068,14.803,11.649
				C-922.105-255.264-928.734-246.952-936.908-246.952z"/>
			<path fill="#FF6600" d="M-915.015-272.939L-915.015-272.939c0.005,0,0.013,0,0.021,0H-915.015z"/>
		</g>
		<path opacity="0.3" fill="#EFEDEC" d="M-970.076-253.089c-2.706,3.726-7.225,6.137-11.877,6.137
			c-8.177,0-14.804-8.312-14.804-15.89c0-7.58,6.626-11.649,14.804-11.649c8.176,0,14.799,4.068,14.799,11.649
			C-967.154-259.569-968.016-255.908-970.076-253.089z"/>
		<path opacity="0.3" fill="#EFEDEC" d="M-925.186-253.089c-2.704,3.726-7.224,6.137-11.877,6.137
			c-8.177,0-14.803-8.312-14.803-15.89c0-7.58,6.626-11.649,14.803-11.649c8.177,0,14.8,4.068,14.8,11.649
			C-922.263-259.569-923.125-255.908-925.186-253.089z"/>
		<path d="M-920.408-273.408c0,0,1.409,7.406,1.518,9.006c0,0,3.206-1.603,4.579-1.183l-0.392-7.385L-920.408-273.408z"/>
		<path d="M-999.775-273.166c0,0-1.006,6.046-1.372,7.85c0,0-3.165-0.683-4.538-0.263l0.042-7.391L-999.775-273.166z"/>
		<path d="M-916.967-274.576"/>
		<path opacity="0.3" fill="#FFFFFF" d="M-1018.914-309.857c0,0,7.25,5.284,6.144,13.271
			C-1012.77-296.586-1010.558-305.924-1018.914-309.857z"/>
		<path fill="#EAA97D" d="M-951.097-292.479c0,0,15.164-1.973,16.542-1.784c3.71,0.509,4.459,0.324,8.433,5.243
			c4.146,5.133,7.477,11.273,10.395,17.976c0,0-4.531-20.057-11.773-23.625C-927.5-294.669-941.853-299.831-951.097-292.479z"/>
		<path fill="#281D18" d="M-908.078-264.965l0.718,2.102c0-9.697,2.297-18.621,2.297-26.852c0-8.215-4.808-22.371-19.612-23.865
			c0,0-9.72-28.043-67.003-20.522c0,0,5.543,3.527,6.929,4.926c1.385,1.415,1.385,1.415,1.385,1.415s-14.092-0.708-22.406,5.402
			c0,0,5.778,1.65,6.93,4.929c0,0-16.284,1.061-22.638,7.522c0,0,8.084,0.934,8.084,22.312c0,6.493,0.207,17.655,3.207,25.294
			c-0.022,0.271,0.998,2.691,0.982,2.949l1.517,6.185c0-3.307,4.094-21.714,4.094-21.714c5.588-15.947,14.931-17.996,17.809-17.996
			c2.885,0,12.818,1.755,19.744,1.755c17.093,0,21.485-4.463,32.339-4.463c10.314,0,17.572,23.353,18.272,25.679
			c0.513,3.865,3.627,13.542,3.771,17.621C-907.77-259.856-908.078-264.965-908.078-264.965z"/>
		<path opacity="0.3" fill="#FFFFFF" d="M-947.781-295.485c0,0,15.238-3.605,19.335-0.983c0,0-0.466-2.967-9.523-1.29
			C-944.051-296.632-944.544-296.468-947.781-295.485z"/>
		<path opacity="0.3" fill="#FFFFFF" d="M-921.679-310.841c0,0,4.915-0.49,11.634,11.47
			C-910.045-299.371-913.487-310.185-921.679-310.841z"/>
	</g>
</g>
<g>
	<polygon fill="#FFFFFF" points="-728.038,-239.405 -728.038,-239.405 -728.018,-239.405 	"/>
	<path fill="#FFFFFF" d="M-689.708-263.643c-29.494-0.378-50.932,21.146-51.32,51.279c-0.224,17.523,7.535,28.951,14.248,38.871
		c5.244,7.762,11.087,14.597,9.543,22.352c-1.968,9.887,16.029,11.551,26.024,12.536c8.721,0.861,25.987-1.393,26.124-11.864
		c0.103-8.121,4.89-14.685,10.117-22.099c6.964-9.743,15.018-20.967,15.243-38.49C-639.345-240.978-660.218-263.262-689.708-263.643
		"/>
	<path fill="#FFFFFF" d="M-671.529-139.24c-5.816,4.077-13.129,4.711-19.367,4.701c-9.033-0.016-14.838-1.533-19.564-4.983
		c-1.504-1.078-3.44-0.652-4.517,0.638c-1.079,1.501-0.651,3.44,0.637,4.518c3.437,2.372,6.877,3.883,10.531,4.751
		c0.637,6.453,6.218,11.624,12.887,11.637c6.667,0.012,12.269-5.14,12.924-11.592c3.66-0.854,7.103-2.355,10.334-4.714
		c1.506-1.073,1.725-3.008,0.652-4.516C-668.084-140.307-670.237-140.312-671.529-139.24 M-691.128-124.216
		c-2.795-0.004-4.943-1.73-6.016-4.097c1.935,0.218,4.088,0.221,6.024,0.224c1.934,0.005,3.869,0.008,6.022-0.203
		C-685.963-125.926-688.332-124.212-691.128-124.216"/>
	<path fill="#FF6600" d="M-689.751-255.188c-27.158-0.35-46.899,19.471-47.258,47.219c-0.208,16.138,6.937,26.662,13.121,35.795
		c4.827,7.149,10.209,13.442,8.788,20.586c-1.812,9.102,14.76,10.634,23.964,11.544c8.03,0.789,23.931-1.282,24.055-10.927
		c0.094-7.478,4.503-13.523,9.317-20.351c6.416-8.97,13.832-19.307,14.038-35.446C-643.37-234.317-662.593-254.837-689.751-255.188"
		/>
	<path fill="#FFFFFF" d="M-712.069-215.93c-9.949,0.323-12.264,8.007-8.205,16.746c4.054,8.738,16.085,5.42,18.787-2.189
		C-698.781-208.982-704.421-216.179-712.069-215.93"/>
	<path fill="#FFFFFF" d="M-667.965-225.143c0.338-1.201,7.653-2.199,8.956,2.76c0.83,3.169-3.282-0.627-5.046-0.639
		C-665.818-223.031-668.37-223.717-667.965-225.143"/>
	<path fill="#FFFFFF" d="M-715.039-220.981c-0.441-1.167,4.846-6.319,8.844-3.107c2.552,2.054-3.012,1.447-4.436,2.487
		C-712.054-220.562-714.514-219.594-715.039-220.981"/>
	<path fill="#FFFFFF" d="M-675.225-171.062c-1.938,1.052-3.518-0.32-3.829,0.269c-0.306,0.586,1.886,1.799,4.078,0.572
		c2.165-1.212,2.607-2.706,1.968-2.987C-673.649-173.486-673.824-171.822-675.225-171.062"/>
	<path fill="#FFFFFF" d="M-717.015-144.571c6.958,4.939,15.347,7.277,26.119,7.241c10.535-0.032,18.906-2.423,25.834-7.407
		c1.67-1.185,1.902-3.314,0.702-4.963c-1.202-1.651-3.207-1.089-4.881,0.098c-5.492,4.034-12.819,5.159-21.676,5.184
		c-9.099,0.03-16.047-1.838-21.805-5.836c-1.679-1.177-3.83-0.698-5.025,0.724C-719.178-147.871-718.695-145.747-717.015-144.571"/>
	<path fill="#FFFFFF" d="M-667.199-220.237c-4.327-0.043-9.255,0.954-15.342,4.682c-1.783-1.648-13.602-1.648-15.386,0
		c-6.086-3.728-11.015-4.725-15.342-4.682c-8.251,0.065-14.272,4.378-21.673,3.966v7.279c2.986,0.087,3.655,0.433,3.924,2.471
		c3.815,28.123,36.324,22.034,36.525-1.496c-7.381-6.761,15.854-6.761,8.498,0c0.196,23.53,32.71,29.597,36.524,1.496
		c0.287-2.059,0.936-2.384,3.924-2.471v-7.279C-652.965-215.868-658.956-220.172-667.199-220.237 M-732.313-211.461
		c-0.402,0-0.735-0.325-0.735-0.715c0-0.39,0.333-0.715,0.735-0.715c0.404,0,0.736,0.325,0.736,0.715
		C-731.576-211.786-731.909-211.461-732.313-211.461 M-700.958-196.295c-2.722,3.749-7.271,6.177-11.953,6.177
		c-8.229,0-14.898-8.365-14.898-15.991c0-7.629,6.669-11.722,14.898-11.722c8.228,0,14.893,4.094,14.893,11.722
		C-698.018-202.816-698.885-199.132-700.958-196.295 M-667.58-190.118c-4.682,0-9.23-2.427-11.951-6.177
		c-2.076-2.837-2.942-6.521-2.942-9.814c0-7.629,6.666-11.722,14.893-11.722c8.227,0,14.898,4.094,14.898,11.722
		C-652.682-198.483-659.352-190.118-667.58-190.118"/>
	<path fill="#FFFFFF" d="M-650.972-216.743c0,0,1.417,7.453,1.525,9.063c0,0,3.227-1.614,4.609-1.191l-0.396-7.432L-650.972-216.743
		z"/>
	<path fill="#FFFFFF" d="M-730.845-216.5c0,0-1.012,6.085-1.382,7.901c0,0-3.184-0.687-4.567-0.265l0.043-7.438L-730.845-216.5z"/>
	<path fill="#FFFFFF" d="M-638.567-208.246l0.723,2.115c0-9.758,2.311-18.74,2.311-27.022c0-8.267-4.837-22.513-19.737-24.017
		c0,0-9.781-28.221-67.429-20.652c0,0,5.578,3.549,6.973,4.956l1.393,1.424c0,0-14.182-0.712-22.549,5.437
		c0,0,5.815,1.66,6.974,4.96c0,0-16.388,1.067-22.782,7.569c0,0,8.135,0.939,8.135,22.454c0,6.534,0.209,17.767,3.227,25.455
		c-0.021,0.273,1.005,2.708,0.989,2.968l1.527,6.224c0-3.328,4.119-21.852,4.119-21.852c5.623-16.048,15.025-18.111,17.922-18.111
		c2.903,0,12.9,1.767,19.87,1.767c17.202,0,21.624-4.491,32.544-4.491c10.38,0,17.685,23.501,18.388,25.842
		c0.518,3.889,3.65,13.628,3.796,17.733C-638.255-203.105-638.567-208.246-638.567-208.246"/>
	<path fill="#FFFFFF" d="M-670.763-215.928c-9.951,0.323-12.265,8.006-8.205,16.746c4.056,8.738,16.086,5.419,18.789-2.189
		C-657.475-208.981-663.113-216.177-670.763-215.928"/>
	<path fill="#FF6600" d="M-665.281-205.319c-0.034,2.624-2.186,4.723-4.81,4.688c-2.622-0.035-4.718-2.186-4.685-4.809
		c0.035-2.623,2.186-4.721,4.808-4.686C-667.345-210.092-665.247-207.941-665.281-205.319"/>
	<path fill="#FFFFFF" d="M-669.519-206.978c-0.016,1.118-0.932,2.012-2.053,1.997c-1.116-0.014-2.011-0.932-1.997-2.05
		c0.014-1.118,0.932-2.013,2.05-1.998C-670.399-209.016-669.504-208.098-669.519-206.978"/>
	<path fill="#FFFFFF" d="M-667.131-202.618c-0.007,0.502-0.42,0.901-0.921,0.896c-0.501-0.007-0.901-0.417-0.897-0.919
		c0.007-0.501,0.42-0.902,0.92-0.896C-667.527-203.532-667.125-203.119-667.131-202.618"/>
	<path fill="#FF6600" d="M-706.589-205.32c-0.033,2.624-2.185,4.723-4.811,4.688c-2.621-0.034-4.717-2.186-4.684-4.809
		c0.036-2.623,2.186-4.721,4.808-4.687C-708.652-210.093-706.554-207.941-706.589-205.32"/>
	<path fill="#FFFFFF" d="M-710.827-206.979c-0.014,1.118-0.931,2.011-2.052,1.997c-1.116-0.014-2.012-0.932-1.998-2.051
		c0.014-1.118,0.933-2.013,2.051-1.998C-711.707-209.017-710.812-208.098-710.827-206.979"/>
	<path fill="#FFFFFF" d="M-708.439-202.619c-0.006,0.502-0.418,0.902-0.919,0.896c-0.5-0.006-0.902-0.417-0.897-0.919
		c0.008-0.501,0.42-0.902,0.921-0.896C-708.834-203.533-708.433-203.119-708.439-202.619"/>
</g>
<g>
	<g>
		<path fill="#908E8D" d="M180.479,273.442c-0.02,2.337-13.932,4.109-31.07,3.959c-17.143-0.15-31.018-2.166-30.998-4.501
			c0.021-2.339,13.93-4.111,31.07-3.961C166.621,269.089,180.5,271.104,180.479,273.442z"/>
		<g>
			<path fill="#EAA97D" d="M150.557,39.889c-43.939-0.564-75.879,31.505-76.459,76.4c-0.334,26.107,11.226,43.135,21.229,57.914
				c7.813,11.565,16.518,21.748,14.217,33.303c-2.932,14.73,23.883,17.21,38.774,18.678c12.992,1.283,38.717-2.075,38.92-17.676
				c0.154-12.101,7.287-21.88,15.072-32.926c10.377-14.516,22.377-31.239,22.713-57.347
				C225.596,73.656,194.496,40.456,150.557,39.889z"/>
			<path fill="#FF6600" d="M178.438,225.645c-8.817,6.035-19.833,6.868-29.217,6.746c-13.594-0.175-22.302-2.553-29.354-7.823
				c-2.244-1.646-5.163-1.038-6.806,0.883c-1.649,2.242-1.038,5.166,0.882,6.811c5.132,3.624,10.279,5.956,15.764,7.323
				c0.85,9.72,9.16,17.593,19.195,17.725c10.03,0.13,18.545-7.529,19.639-17.225c5.52-1.223,10.727-3.424,15.628-6.919
				c2.284-1.59,2.646-4.498,1.056-6.784C183.639,224.097,180.399,224.054,178.438,225.645z M148.699,247.921
				c-4.208-0.054-7.411-2.686-8.984-6.266c2.908,0.361,6.146,0.401,9.06,0.438c2.911,0.038,5.822,0.077,9.063-0.204
				C156.498,245.433,152.904,247.974,148.699,247.921z"/>
			<path fill="#F4B184" d="M150.496,52.485c-40.463-0.521-69.877,29.01-70.41,70.351c-0.31,24.043,10.336,39.724,19.549,53.331
				c7.193,10.652,15.211,20.028,13.094,30.671c-2.701,13.562,21.988,15.845,35.703,17.199c11.965,1.176,35.654-1.91,35.84-16.279
				c0.141-11.143,6.709-20.147,13.879-30.321c9.558-13.365,20.609-28.765,20.918-52.811C219.6,83.581,190.959,53.009,150.496,52.485
				z"/>
			<g>
				<path fill="#FFFFFF" d="M117.243,110.977c-14.822,0.481-18.271,11.93-12.224,24.951c6.04,13.019,23.963,8.075,27.99-3.262
					C137.041,121.329,128.639,110.605,117.243,110.977z"/>
				<path fill="#020202" d="M125.407,126.785c-0.048,3.909-3.256,7.036-7.167,6.984c-3.904-0.051-7.027-3.257-6.979-7.165
					c0.053-3.906,3.257-7.033,7.164-6.982C122.334,119.673,125.459,122.878,125.407,126.785z"/>
				<path fill="#FFFFFF" d="M119.094,124.313c-0.021,1.666-1.387,2.997-3.057,2.976c-1.664-0.02-2.998-1.389-2.977-3.055
					c0.02-1.666,1.389-3,3.057-2.977C117.783,121.276,119.117,122.645,119.094,124.313z"/>
				<circle fill="#FFFFFF" cx="121.3" cy="130.791" r="1.353"/>
			</g>
			<g>
				<path fill="#FFFFFF" d="M178.787,110.979c-14.828,0.481-18.275,11.93-12.227,24.95c6.043,13.019,23.967,8.075,27.994-3.262
					C198.584,121.33,190.182,110.608,178.787,110.979z"/>
				<circle fill="#020202" cx="179.878" cy="126.695" r="7.074"/>
				<path fill="#FFFFFF" d="M180.639,124.314c-0.023,1.665-1.389,2.997-3.059,2.975c-1.664-0.02-2.996-1.389-2.977-3.054
					c0.021-1.667,1.389-3,3.057-2.979C179.326,121.277,180.66,122.646,180.639,124.314z"/>
				<circle fill="#FFFFFF" cx="182.843" cy="130.793" r="1.353"/>
			</g>
			<path fill="#281D18" d="M182.953,97.249c0.504-1.789,11.4-3.276,13.342,4.114c1.24,4.72-4.889-0.936-7.518-0.953
				C186.15,100.396,182.352,99.374,182.953,97.249z"/>
			<path fill="#281D18" d="M112.82,103.451c-0.656-1.739,7.219-9.414,13.176-4.629c3.803,3.06-4.488,2.156-6.609,3.705
				C117.265,104.076,113.602,105.517,112.82,103.451z"/>
			<path fill="#020202" d="M172.139,177.826c-2.889,1.567-5.242-0.476-5.705,0.399c-0.457,0.874,2.811,2.681,6.074,0.853
				c3.225-1.805,3.883-4.032,2.932-4.451C174.484,174.214,174.225,176.693,172.139,177.826z"/>
			<path fill="#FF6600" d="M109.912,216.11c10.137,7.674,22.522,11.537,38.566,11.976c15.688,0.433,28.266-2.745,38.809-9.851
				c2.541-1.689,2.984-4.848,1.27-7.359c-1.713-2.513-4.725-1.768-7.271-0.076c-8.363,5.755-19.326,7.097-32.518,6.73
				c-13.551-0.37-23.813-3.471-32.203-9.688c-2.45-1.828-5.675-1.213-7.519,0.85C106.842,211.098,107.465,214.282,109.912,216.11z"
				/>
			<g>
				<path fill="#D28C4E" d="M182.619,106.034c-6.443-0.064-13.787,1.421-22.857,6.974c-2.656-2.454-20.265-2.454-22.921,0
					c-9.069-5.553-16.413-7.038-22.857-6.974c-12.296,0.097-21.265,6.522-32.294,5.909l0.436,8.752
					c5.896-1.474,5.005,1.756,5.404,4.79c5.682,41.902,54.127,33.814,54.426-1.244c-10.998-10.073,23.621-10.073,12.66,0
					c0.293,35.058,48.736,44.098,54.418,2.228c0.43-3.065,1.293-4.907,5.746-5.037l0.1-9.488
					C203.83,112.541,194.9,106.131,182.619,106.034z M85.607,119.11c-0.598,0-1.095-0.485-1.095-1.066
					c0-0.582,0.497-1.065,1.095-1.065c0.601,0,1.098,0.483,1.098,1.065C86.705,118.624,86.209,119.11,85.607,119.11z
					 M132.322,141.706c-4.055,5.585-10.832,9.2-17.809,9.2c-12.26,0-22.195-12.46-22.195-23.825
					c0-11.363,9.936-17.465,22.195-17.465c12.26,0,22.191,6.102,22.191,17.465C136.705,131.991,135.411,137.477,132.322,141.706z
					 M182.055,150.907c-6.977,0-13.754-3.615-17.805-9.2c-3.094-4.229-4.387-9.715-4.387-14.625
					c0-11.363,9.934-17.465,22.191-17.465c12.258,0,22.193,6.102,22.193,17.465C204.248,138.447,194.313,150.907,182.055,150.907z"
					/>
				<path fill="#D28C4E" d="M214.879,111.943L214.879,111.943c0.012,0,0.022,0,0.031,0H214.879z"/>
			</g>
			<g>
				<path fill="#FF6600" d="M184.096,104.559c-6.447-0.064-13.789,1.422-22.857,6.975c-2.656-2.455-20.267-2.455-22.924,0
					c-9.068-5.553-16.412-7.039-22.857-6.975c-12.294,0.098-21.264,6.523-32.293,5.91v10.846c4.451,0.13,5.447,0.645,5.848,3.681
					c5.683,41.901,54.119,32.829,54.418-2.229c-10.996-10.073,23.621-10.073,12.66,0c0.295,35.058,48.734,44.097,54.418,2.229
					c0.43-3.067,1.393-3.551,5.848-3.681v-10.846C205.303,111.068,196.377,104.657,184.096,104.559z M87.082,117.635
					c-0.598,0-1.094-0.484-1.094-1.066c0-0.581,0.496-1.065,1.094-1.065c0.602,0,1.098,0.484,1.098,1.065
					C88.18,117.151,87.684,117.635,87.082,117.635z M133.798,140.231c-4.057,5.586-10.833,9.202-17.809,9.202
					c-12.261,0-22.196-12.463-22.196-23.825c0-11.366,9.936-17.466,22.196-17.466c12.259,0,22.19,6.1,22.19,17.466
					C138.179,130.515,136.887,136.004,133.798,140.231z M183.529,149.433c-6.977,0-13.752-3.616-17.807-9.202
					c-3.092-4.228-4.385-9.716-4.385-14.623c0-11.366,9.932-17.466,22.191-17.466c12.256,0,22.195,6.1,22.195,17.466
					C205.725,136.971,195.785,149.433,183.529,149.433z"/>
				<path fill="#FF6600" d="M216.355,110.469L216.355,110.469c0.008,0,0.02,0,0.031,0H216.355z"/>
			</g>
			<path opacity="0.3" fill="#EFEDEC" d="M133.798,140.231c-4.057,5.586-10.833,9.202-17.809,9.202
				c-12.261,0-22.196-12.463-22.196-23.825c0-11.366,9.936-17.466,22.196-17.466c12.259,0,22.19,6.1,22.19,17.466
				C138.179,130.515,136.887,136.004,133.798,140.231z"/>
			<path opacity="0.3" fill="#EFEDEC" d="M201.105,140.231c-4.055,5.586-10.832,9.202-17.809,9.202
				c-12.26,0-22.195-12.463-22.195-23.825c0-11.366,9.936-17.466,22.195-17.466c12.26,0,22.191,6.1,22.191,17.466
				C205.488,130.515,204.195,136.004,201.105,140.231z"/>
			<path d="M208.27,109.765c0,0,2.113,11.104,2.275,13.503c0,0,4.807-2.404,6.865-1.774l-0.588-11.072L208.27,109.765z"/>
			<path d="M89.268,110.128c0,0-1.509,9.066-2.057,11.771c0,0-4.745-1.024-6.805-0.395l0.063-11.082L89.268,110.128z"/>
			<path d="M213.428,108.014"/>
			<path opacity="0.3" fill="#FFFFFF" d="M60.57,55.114c0,0,10.871,7.923,9.212,19.899C69.782,75.013,73.1,61.011,60.57,55.114z"/>
			<path fill="#EAA97D" d="M162.254,81.17c0,0,22.736-2.958,24.803-2.675c5.563,0.763,6.686,0.486,12.644,7.862
				c6.217,7.697,11.211,16.902,15.586,26.953c0,0-6.793-30.073-17.652-35.422C197.635,77.888,176.115,70.147,162.254,81.17z"/>
			<path fill="#281D18" d="M226.756,122.425l1.076,3.152c0-14.54,3.443-27.92,3.443-40.261c0-12.317-7.209-33.543-29.406-35.782
				c0,0-14.574-42.047-100.463-30.771c0,0,8.311,5.288,10.389,7.385c2.076,2.122,2.076,2.122,2.076,2.122
				s-21.129-1.061-33.596,8.099c0,0,8.664,2.474,10.391,7.39c0,0-24.416,1.59-33.943,11.278c0,0,12.121,1.4,12.121,33.454
				c0,9.735,0.311,26.471,4.809,37.925c-0.033,0.406,1.496,4.035,1.473,4.422l2.274,9.273c0-4.958,6.138-32.558,6.138-32.558
				c8.379-23.91,22.387-26.983,26.702-26.983c4.325,0,19.22,2.631,29.604,2.631c25.629,0,32.215-6.691,48.488-6.691
				c15.465,0,26.348,35.015,27.396,38.503c0.77,5.794,5.438,20.304,5.654,26.42C227.219,130.085,226.756,122.425,226.756,122.425z"
				/>
			<path opacity="0.3" fill="#FFFFFF" d="M167.227,76.664c0,0,22.848-5.405,28.99-1.474c0,0-0.699-4.449-14.279-1.934
				C172.818,74.944,172.08,75.19,167.227,76.664z"/>
			<path opacity="0.3" fill="#FFFFFF" d="M206.363,53.639c0,0,7.369-0.735,17.443,17.198
				C223.807,70.837,218.646,54.622,206.363,53.639z"/>
		</g>
	</g>
	<g>
		<path fill="#FF6600" d="M60.594,370.885c-8.831,0-30.748-1.146-30.748-1.146h-8.014V258.196h7.523c0,0,19.79-1.145,28.949-1.145
			c34.51,0,58.06,20.443,58.06,54.79C116.365,350.767,92.979,370.885,60.594,370.885z M57.978,267.845
			c-6.87,0-19.3,0.492-23.716,0.819v90.281c4.416,0.327,17.336,1.145,25.514,1.145c25.843,0,43.343-18.646,43.343-46.448
			C103.118,282.565,82.184,267.845,57.978,267.845z"/>
		<path fill="#FF6600" d="M173.604,370.722l-0.982-8.505c-8.83,7.522-15.863,9.158-23.715,9.158
			c-14.064,0-23.551-7.196-23.551-26.495v-46.777l11.775-1.144v46.286c0,13.737,6.706,17.5,15.373,17.5
			c7.197,0,14.395-3.599,19.627-8.996v-53.647l11.775-1.144v57.733c0,4.417,0.656,10.632,1.473,14.885L173.604,370.722z"/>
		<path fill="#FF6600" d="M204.674,277.659c-3.926,0-7.033-3.272-7.033-7.197c0-3.925,3.107-7.032,7.033-7.032
			c3.926,0,7.033,3.107,7.033,7.032C211.707,274.388,208.6,277.659,204.674,277.659z M198.785,369.739v-71.637l11.777-0.98v72.617
			H198.785z"/>
		<path fill="#FF6600" d="M240.818,371.375c-7.525,0-16.193-1.143-21.426-4.253l2.289-10.957c5.561,3.107,13.902,4.742,20.607,4.742
			c7.197,0,12.104-2.943,12.104-8.83c0-14.558-33.365-13.902-33.365-35.492c0-12.43,11.939-20.771,27.641-20.771
			c5.234,0,11.449,0.818,16.356,2.126l-1.963,10.958c-4.742-1.635-11.611-2.616-17.5-2.616c-8.014,0-12.758,3.27-12.758,9.159
			c0,13.411,33.365,13.574,33.365,35C266.168,361.89,255.863,371.375,240.818,371.375z"/>
	</g>
</g>
</svg>
